# xmcd
#
# Track frame offsets: 
#        183
#        21408
#        37663
#        54840
#        71715
#        91758
#        109913
#        127673
#        144483
#        165430
#
# Disc length: 2437 seconds
#
# Revision: 6
# Processed by: cddbd v1.5.2PL0 Copyright (c) Steve Scherf et al.
# Submitted via: ExactAudioCopy v1.3
#
DISCID=7409830a
DTITLE=譚詠麟 - 忘情都市
DYEAR=1989
DGENRE=Pop
TTITLE0=爭氣
TTITLE1=零晨之後 (Morning After)
TTITLE2=浪漫之後
TTITLE3=我心如雷
TTITLE4=忘情都市
TTITLE5=你知我知
TTITLE6=獨醉街頭
TTITLE7=應有此報
TTITLE8=生命的詩篇
TTITLE9=至尊無上
EXTD=
EXTT0=
EXTT1=
EXTT2=
EXTT3=
EXTT4=
EXTT5=
EXTT6=
EXTT7=
EXTT8=
EXTT9=
PLAYORDER=
